<svg xmlns="http://www.w3.org/2000/svg" style="display:none">
  <symbol id="account" xmlns="http://www.w3.org/2000/svg" viewBox="0 0 24 24">
    <path fill="currentColor"
      d="M12 19.2c-2.5 0-4.71-1.28-6-3.2c.03-2 4-3.1 6-3.1s5.97 1.1 6 3.1a7.23 7.23 0 0 1-6 3.2M12 5a3 3 0 0 1 3 3a3 3 0 0 1-3 3a3 3 0 0 1-3-3a3 3 0 0 1 3-3m0-3A10 10 0 0 0 2 12a10 10 0 0 0 10 10a10 10 0 0 0 10-10c0-5.53-4.5-10-10-10" />
  </symbol>
  <symbol id="lock" xmlns="http://www.w3.org/2000/svg"  viewBox="0 0 16 16"><path fill="#ffb009" fill-rule="evenodd" d="M8 1a3 3 0 0 0-3 3v3H3v8h10V7h-2V4a3 3 0 0 0-3-3M6 4a2 2 0 1 1 4 0v3H6zm2 5.5a1 1 0 0 0-.5 1.866V12.5h1v-1.134A1 1 0 0 0 8 9.5" clip-rule="evenodd"/></symbol>
  <symbol id="drawer-open" xmlns="http://www.w3.org/2000/svg" viewBox="0 0 24 24">
    <path fill="currentColor" d="M3 18v-2h13v2zm16.6-1l-5-5l5-5L21 8.4L17.4 12l3.6 3.6zM3 13v-2h10v2zm0-5V6h13v2z" />
  </symbol>

  <symbol id="send" xmlns="http://www.w3.org/2000/svg" viewBox="0 0 24 24">
    <path fill="currentColor"
      d="M20.04 2.323c1.016-.355 1.992.621 1.637 1.637l-5.925 16.93c-.385 1.098-1.915 1.16-2.387.097l-2.859-6.432l4.024-4.025a.75.75 0 0 0-1.06-1.06l-4.025 4.024l-6.432-2.859c-1.063-.473-1-2.002.097-2.387z" />
  </symbol>

  <symbol id="edit-box" xmlns="http://www.w3.org/2000/svg" viewBox="0 0 24 24">
    <g fill="none" stroke="currentColor" stroke-linecap="round" stroke-linejoin="round" stroke-width="2">
      <path d="M12 3H5a2 2 0 0 0-2 2v14a2 2 0 0 0 2 2h14a2 2 0 0 0 2-2v-7" />
      <path
        d="M18.375 2.625a1 1 0 0 1 3 3l-9.013 9.014a2 2 0 0 1-.853.505l-2.873.84a.5.5 0 0 1-.62-.62l.84-2.873a2 2 0 0 1 .506-.852z" />
    </g>
  </symbol>
  <symbol id="edit" xmlns="http://www.w3.org/2000/svg" viewBox="0 0 24 24">
    <path
      d="M20.71,7.04C21.1,6.65 21.1,6 20.71,5.63L18.37,3.29C18,2.9 17.35,2.9 16.96,3.29L15.12,5.12L18.87,8.87M3,17.25V21H6.75L17.81,9.93L14.06,6.18L3,17.25Z" />
  </symbol>
  <symbol id="run" xmlns="http://www.w3.org/2000/svg"  viewBox="0 0 16 16">
    <path fill="currentColor"
      d="M3.44 13.557a1.5 1.5 0 0 0 1.795.244l8-4.5a1.5 1.5 0 0 0 0-2.61l-8.01-4.507A1.52 1.52 0 0 0 3 3.496v9c0 .398.158.78.44 1.06m.706-10.414a.5.5 0 0 1 .599-.082l8 4.5a.5.5 0 0 1 0 .87l-7.99 4.494A.492.492 0 0 1 4 12.496v-9a.5.5 0 0 1 .146-.353m6.614 8.693l1.22-.68q.018.125.02.25a1.51 1.51 0 0 1-.76 1.31l-5.08 2.86a3.6 3.6 0 0 1-1.66.42a3 3 0 0 1-.91-.13a3.33 3.33 0 0 1-1.59-.93a3.46 3.46 0 0 1-1-2.44v-5.59a1.48 1.48 0 0 1 1-1.39v6.98a2.513 2.513 0 0 0 3.7 2.19l5.05-2.84a.01.01 0 0 0 .01-.01" />
  </symbol>
  <symbol id="menu" xmlns="http://www.w3.org/2000/svg" viewBox="0 0 16 16">
    <g fill="none" stroke="currentColor" stroke-linecap="round" stroke-linejoin="round" stroke-width="1.5">
      <circle cx="8" cy="2.5" r=".75" />
      <circle cx="8" cy="8" r=".75" />
      <circle cx="8" cy="13.5" r=".75" />
    </g>
  </symbol>

  <symbol id="delete" xmlns="http://www.w3.org/2000/svg" viewBox="0 0 24 24">
    <path fill="red"
      d="M9,3V4H4V6H5V19A2,2 0 0,0 7,21H17A2,2 0 0,0 19,19V6H20V4H15V3H9M7,6H17V19H7V6M9,8V17H11V8H9M13,8V17H15V8H13Z" />
  </symbol>
  <symbol id="plus-thick" xmlns="http://www.w3.org/2000/svg" viewBox="0 0 24 24">
    <title>plus-thick</title>
    <path d="M20 14H14V20H10V14H4V10H10V4H14V10H20V14Z" />
  </symbol>

  <symbol id="done" xmlns="http://www.w3.org/2000/svg" viewBox="0 0 24 24">
    <path fill="currentColor"
      d="m6.7 18l-5.65-5.65l1.425-1.4l4.25 4.25l1.4 1.4zm5.65 0L6.7 12.35l1.4-1.425l4.25 4.25l9.2-9.2l1.4 1.425zm0-5.65l-1.425-1.4L15.875 6L17.3 7.4z" />
  </symbol>

  <symbol id="attachment" xmlns="http://www.w3.org/2000/svg" viewBox="0 0 24 24">
    <title>paperclip-plus</title>
    <path
      d="M18 13.09C17.47 13.18 16.97 13.34 16.5 13.55V6H18V13.09M12.5 21.5C10.29 21.5 8.5 19.71 8.5 17.5V5C8.5 3.62 9.62 2.5 11 2.5S13.5 3.62 13.5 5V15.5C13.5 16.05 13.05 16.5 12.5 16.5S11.5 16.05 11.5 15.5V6H10V15.5C10 16.88 11.12 18 12.5 18C12.71 18 12.91 17.97 13.1 17.92C13.35 16.58 14.03 15.41 15 14.54V5C15 2.79 13.21 1 11 1S7 2.79 7 5V17.5C7 20.54 9.46 23 12.5 23C13.13 23 13.73 22.89 14.29 22.7C13.97 22.29 13.7 21.84 13.5 21.36C13.17 21.44 12.84 21.5 12.5 21.5M20 18V15H18V18H15V20H18V23H20V20H23V18H20Z" />
  </symbol>

  <symbol id="ai-piper" viewBox="0 0 24 24">
    <path fill="currentColor"
      d="M21 11V9h-2V7a2.006 2.006 0 0 0-2-2h-2V3h-2v2h-2V3H9v2H7a2.006 2.006 0 0 0-2 2v2H3v2h2v2H3v2h2v2a2.006 2.006 0 0 0 2 2h2v2h2v-2h2v2h2v-2h2a2.006 2.006 0 0 0 2-2v-2h2v-2h-2v-2Zm-4 6H7V7h10Z" />
    <path fill="currentColor"
      d="M11.361 8h-1.345l-2.01 8h1.027l.464-1.875h2.316L12.265 16h1.062Zm-1.729 5.324L10.65 8.95h.046l.983 4.374ZM14.244 8h1v8h-1z" />
  </symbol>

  <symbol id="input-sources" viewBox="0 0 24 24">
    <path fill="currentColor"
      d="M11 11.825V21q0 .425.288.713T12 22t.713-.288T13 21v-9.175l1.9 1.875q.275.275.688.288t.712-.288q.275-.275.275-.7t-.275-.7l-3.6-3.6q-.3-.3-.7-.3t-.7.3l-3.6 3.6q-.275.275-.288.688t.288.712q.275.275.7.275t.7-.275zM12 4Q8.65 4 6.325 6.325T4 12q0 .825.162 1.625t.488 1.55q.175.425.112.85t-.387.75q-.3.3-.737.138t-.663-.638Q2.5 15.25 2.25 14.188T2 12q0-2.075.788-3.9t2.137-3.175T8.1 2.788T12 2t3.9.788t3.175 2.137T21.213 8.1T22 12q0 1.125-.238 2.213t-.737 2.112q-.225.45-.662.6t-.738-.15t-.387-.725t.087-.825q.35-.775.513-1.587T20 12q0-3.35-2.325-5.675T12 4" />
  </symbol>

  <symbol id="manual-input" viewBox="0 0 24 24">
    <path fill="currentColor" d="M5 20h14v-2H5zm0-10h4v6h6v-6h4l-7-7z" />
  </symbol>

  <symbol id="manual_input" xmlns="http://www.w3.org/2000/svg" viewBox="0 0 16 16">
    <path fill="currentColor" d="M11 10v2H5v-2H0v6h16v-6zm-7 4H2v-2h2z" />
    <path fill="currentColor" d="M13 5L8 0L3 5h3v6h4V5z" />
  </symbol>

  <symbol id="extension-data" viewBox="0 0 24 24">
    <path fill="currentColor"
      d="M8.8 21H5q-.825 0-1.412-.587T3 19v-3.8q1.2 0 2.1-.762T6 12.5t-.9-1.937T3 9.8V6q0-.825.588-1.412T5 4h4q0-1.05.725-1.775T11.5 1.5t1.775.725T14 4h4q.825 0 1.413.588T20 6v4q1.05 0 1.775.725T22.5 12.5t-.725 1.775T20 15v4q0 .825-.587 1.413T18 21h-3.8q0-1.25-.787-2.125T11.5 18t-1.912.875T8.8 21" />
  </symbol>

  <symbol id="http-fetch" viewBox="0 0 24 24">
    <path fill="none" stroke="currentColor" stroke-linecap="round" stroke-linejoin="round" stroke-width="2"
      d="M7 8H5a2 2 0 0 0-2 2v4a2 2 0 0 0 2 2h2v-4H6m8-4h-4v8h4m-4-4h2.5M17 8h4m-2 0v8" />
  </symbol>

  <symbol id="scheduled-http" xmlns="http://www.w3.org/2000/svg" viewBox="0 0 24 24">
    <path fill="currentColor"
      d="M10.021 1.021h6v2h-6zM20.04 7.41l1.434-1.434l-1.414-1.414l-1.433 1.433A8.99 8.99 0 0 0 7.53 5.881l1.42 1.44a7.04 7.04 0 0 1 4.06-1.3l.01.001v6.98l4.953 4.958A7.001 7.001 0 0 1 6.01 13.021h3l-4-4l-4 4h3A9 9 0 1 0 20.04 7.41" />
  </symbol>

  <symbol id="tab-visit" xmlns="http://www.w3.org/2000/svg" viewBox="0 0 24 24">
    <path fill="currentColor"
      d="M4 18h16v-8h-6q-.425 0-.712-.288T13 9V6H4zm0 2q-.825 0-1.412-.587T2 18V6q0-.825.588-1.412T4 4h16q.825 0 1.413.588T22 6v12q0 .825-.587 1.413T20 20zm0-2V6z" />
  </symbol>

  <symbol id="scheduled" viewBox="0 0 24 24">
    <path fill="currentColor"
      d="M10 3.578a.75.75 0 0 1 0-1.5h3.536a.75.75 0 0 1 0 1.5zm-3.47.452a.75.75 0 0 1 0 1.06l-2.5 2.5a.75.75 0 0 1-1.06-1.06l2.5-2.5a.75.75 0 0 1 1.06 0" />
    <path fill="currentColor" fill-rule="evenodd"
      d="M12 5.06a8.5 8.5 0 1 0 0 17a8.5 8.5 0 0 0 0-17m4.99 3.711a.5.5 0 0 0-.7-.701l-3.175 2.468l-2.075 1.483a1.434 1.434 0 1 0 2 2l1.482-2.076z"
      clip-rule="evenodd" />
  </symbol>

  <symbol id="conditional" viewBox="0 0 24 24">
    <path fill="currentColor"
      d="M4 18h16v-8h-7V6H4zm0 2q-.825 0-1.412-.587T2 18V6q0-.825.588-1.412T4 4h16q.825 0 1.413.588T22 6v12q0 .825-.587 1.413T20 20zm0-2V6z" />
  </symbol>

  <symbol id="file-watch" viewBox="0 0 441 512.02">
    <path fill-rule="evenodd" clip-rule="evenodd"
      d="M324.87 279.77c32.01 0 61.01 13.01 82.03 34.02 21.09 21 34.1 50.05 34.1 82.1 0 32.06-13.01 61.11-34.02 82.11l-1.32 1.22c-20.92 20.29-49.41 32.8-80.79 32.8-32.06 0-61.1-13.01-82.1-34.02-21.01-21-34.02-50.05-34.02-82.11s13.01-61.1 34.02-82.1c21-21.01 50.04-34.02 82.1-34.02zM243.11 38.08v54.18c.99 12.93 5.5 23.09 13.42 29.85 8.2 7.01 20.46 10.94 36.69 11.23l37.92-.04-88.03-95.22zm91.21 120.49-41.3-.04c-22.49-.35-40.21-6.4-52.9-17.24-13.23-11.31-20.68-27.35-22.19-47.23l-.11-1.74V25.29H62.87c-10.34 0-19.75 4.23-26.55 11.03-6.8 6.8-11.03 16.21-11.03 26.55v336.49c0 10.3 4.25 19.71 11.06 26.52 6.8 6.8 16.22 11.05 26.52 11.05h119.41c2.54 8.79 5.87 17.25 9.92 25.29H62.87c-17.28 0-33.02-7.08-44.41-18.46C7.08 432.37 0 416.64 0 399.36V62.87c0-17.26 7.08-32.98 18.45-44.36C29.89 7.08 45.61 0 62.87 0h173.88c4.11 0 7.76 1.96 10.07 5l109.39 118.34c2.24 2.43 3.34 5.49 3.34 8.55l.03 119.72c-8.18-1.97-16.62-3.25-25.26-3.79v-89.25zm-229.76 54.49c-6.98 0-12.64-5.66-12.64-12.64 0-6.99 5.66-12.65 12.64-12.65h150.49c6.98 0 12.65 5.66 12.65 12.65 0 6.98-5.67 12.64-12.65 12.64H104.56zm0 72.3c-6.98 0-12.64-5.66-12.64-12.65 0-6.98 5.66-12.64 12.64-12.64h142.52c3.71 0 7.05 1.6 9.37 4.15a149.03 149.03 0 0 0-30.54 21.14H104.56zm0 72.3c-6.98 0-12.64-5.66-12.64-12.65 0-6.98 5.66-12.64 12.64-12.64h86.2c-3.82 8.05-6.95 16.51-9.29 25.29h-76.91zm203.96-20.95h17.41c3.18 0 5.79 2.61 5.79 5.79v55.22h44.36c3.21 0 5.82 2.61 5.82 5.81v17.4c0 3.21-2.61 5.81-5.82 5.81H302.7V342.5c0-3.18 2.61-5.79 5.82-5.79z" />
  </symbol>

  <symbol id="file-watch-simple" viewBox="0 0 16 16">
    <path fill="currentColor" fill-rule="evenodd" clip-rule="evenodd"
      d="M4.75 5.5c.427 0 .791.163 1.075.45c-.145-.778-.37-1.415-.64-1.894C4.72 3.236 4.216 3 3.75 3s-.97.237-1.434 1.056C1.835 4.906 1.5 6.25 1.5 8s.335 3.094.816 3.944c.463.82.967 1.056 1.434 1.056s.97-.237 1.434-1.056c.272-.48.496-1.116.64-1.895a1.47 1.47 0 0 1-1.074.451C3.674 10.5 3 9.47 3 8s.674-2.5 1.75-2.5M7.5 8c0 3.822-1.445 6.5-3.75 6.5S0 11.822 0 8s1.445-6.5 3.75-6.5S7.5 4.178 7.5 8m6.825 2.05c-.145.778-.37 1.415-.64 1.894c-.464.82-.968 1.056-1.435 1.056s-.97-.237-1.434-1.056C10.335 11.094 10 9.75 10 8s.335-3.094.816-3.944C11.279 3.236 11.783 3 12.25 3s.97.237 1.434 1.056c.272.48.496 1.116.64 1.895A1.47 1.47 0 0 0 13.25 5.5c-1.076 0-1.75 1.03-1.75 2.5s.674 2.5 1.75 2.5a1.47 1.47 0 0 0 1.075-.45M16 8c0 3.822-1.445 6.5-3.75 6.5S8.5 11.822 8.5 8s1.445-6.5 3.75-6.5S16 4.178 16 8" />
  </symbol>

  <symbol id="webhook" viewBox="0 0 24 24">
    <path fill="currentColor"
      d="M7 21q-2.075 0-3.537-1.463T2 16q0-1.825 1.138-3.187T6 11.1v2.075q-.875.3-1.437 1.075T4 16q0 1.25.875 2.125T7 19t2.125-.875T10 16v-1h5.875q.2-.225.488-.363T17 14.5q.625 0 1.063.438T18.5 16t-.437 1.063T17 17.5q-.35 0-.638-.137T15.876 17H11.9q-.35 1.725-1.713 2.863T7 21m10 0q-1.4 0-2.537-.687T12.675 18.5h2.675q.35.25.775.375T17 19q1.25 0 2.125-.875T20 16t-.875-2.125T17 13q-.5 0-.925.138t-.8.412l-3.05-5.075q-.525-.1-.875-.5T11 7q0-.625.438-1.062T12.5 5.5t1.063.438T14 7v.213q0 .087-.05.212l2.175 3.65q.2-.05.425-.062T17 11q2.075 0 3.538 1.463T22 16t-1.463 3.538T17 21M7 17.5q-.625 0-1.062-.437T5.5 16q0-.55.35-.95t.85-.525l2.35-3.9q-.725-.675-1.138-1.612T7.5 7q0-2.075 1.463-3.537T12.5 2t3.538 1.463T17.5 7h-2q0-1.25-.875-2.125T12.5 4t-2.125.875T9.5 7q0 1.075.65 1.888t1.65 1.037L8.425 15.55q.05.125.063.225T8.5 16q0 .625-.437 1.063T7 17.5" />
  </symbol>

  <symbol id="http-request" xmlns="http://www.w3.org/2000/svg" viewBox="0 0 16 16">
    <g fill="none" stroke="#8aadf4" stroke-linecap="round" stroke-linejoin="round" stroke-width="1">
      <path d="M14.5 8A6.5 6.5 0 0 1 8 14.5A6.5 6.5 0 0 1 1.5 8A6.5 6.5 0 0 1 8 1.5A6.5 6.5 0 0 1 14.5 8" />
      <path
        d="M8 1.5c1.67 2 2.5 4.17 2.5 6.5s-.83 4.5-2.5 6.5m0-13A9.96 9.96 0 0 0 5.5 8c0 2.33.83 4.5 2.5 6.5m-5.5-4h11m-11-5h11" />
    </g>
  </symbol>

  <symbol id="data-ops" viewBox="0 0 24 24">
    <path fill="currentColor"
      d="M16.26 11h5.5a1.78 1.78 0 0 1 1.55.91a1.8 1.8 0 0 1 0 1.81L22.46 15h.3a1.83 1.83 0 0 1 1.17.43a1.6 1.6 0 0 0 0-.38v-6.4a2.14 2.14 0 0 0-2.1-2.15a.54.54 0 0 0-.54.54v1.61h-4V6.5a.54.54 0 0 0-.55-.5h-1.61l-1.6-2.15h-1V2h2.75a.75.75 0 1 0 0-1.5h-7a.75.75 0 0 0 0 1.5H11v1.82H7.37L5.76 5.43H3.62a.54.54 0 0 0-.54.57v3H1.53V5.79A.75.75 0 0 0 .78 5a.74.74 0 0 0-.78.79v8a.75.75 0 0 0 1.5 0v-3.25h1.58v2.93a.54.54 0 0 0 .54.53h2.14l2.14 3.75h4.8l1.48-5.17A2.17 2.17 0 0 1 16.26 11" />
    <path fill="currentColor"
      d="M23 17.2a.38.38 0 0 0 .09-.43a.39.39 0 0 0-.36-.25h-3L22 12.94a.28.28 0 0 0 0-.28a.27.27 0 0 0-.24-.14h-5.5a.65.65 0 0 0-.64.48L14 18.56a.75.75 0 0 0 .12.66a.77.77 0 0 0 .61.3h2l-1 3.21a.5.5 0 0 0 .48.65a.47.47 0 0 0 .34-.14Z" />
  </symbol>

  <symbol id="filter" viewBox="0 0 24 24">
    <path fill="currentColor"
      d="M14 12v7.88c.04.3-.06.62-.29.83a.996.996 0 0 1-1.41 0l-2.01-2.01a.99.99 0 0 1-.29-.83V12h-.03L4.21 4.62a1 1 0 0 1 .17-1.4c.19-.14.4-.22.62-.22h14c.22 0 .43.08.62.22a1 1 0 0 1 .17 1.4L14.03 12z" />
  </symbol>

  <symbol id="transform" viewBox="0 0 512 512">
    <path fill="currentColor"
      d="M128 32a96 96 0 0 0-96 96a96 96 0 0 0 96 96a96 96 0 0 0 30.285-4.986L140.29 201.02l64.353-64.352l6.363-6.363l11.86 11.86A96 96 0 0 0 224 128a96 96 0 0 0-96-96m83.006 123.76l-45.26 45.26L252.73 288l-23.468 23.467l115.24 23.047l-23.05-115.24l-23.466 23.466zM353.556 288l13.89 69.46L288 341.57V480h192V288z" />
  </symbol>

  <symbol id="join" viewBox="0 0 8 8">
    <path fill="currentColor" d="m4 0l3 3H5v1l3 3v1H6V7L4 5L2 7v1H0V7l3-3V3H1" />
  </symbol>

  <symbol id="split" viewBox="0 0 8 8">
    <path fill="currentColor" d="M3 0h2v2l2 2l1-1v3H5l1-1l-2-2l-2 2l1 1H0V3l1 1l2-2" />
  </symbol>

  <symbol id="deduplicate" viewBox="0 0 20 20">
    <g fill="currentColor">
      <path fill-rule="evenodd"
        d="M15.5 6.5h-8a1 1 0 0 0-1 1v8a1 1 0 0 0 1 1h8a1 1 0 0 0 1-1v-8a1 1 0 0 0-1-1m-7 8v-6h6v6z"
        clip-rule="evenodd" />
      <path d="M6.5 13.5h-2a1 1 0 0 1-1-1v-8a1 1 0 0 1 1-1h8a1 1 0 0 1 1 1v2h-2v-1h-6v6h1z" />
      <path d="M1.293 2.707a1 1 0 0 1 1.414-1.414l16 16a1 1 0 0 1-1.414 1.414z" />
    </g>
  </symbol>

  <symbol id="validate" viewBox="0 0 24 24">
    <path fill="none" stroke="#29ff00" stroke-width="2"
      d="M20 15c-1 1 1.25 3.75 0 5s-4-1-5 0s-1.5 3-3 3s-2-2-3-3s-3.75 1.25-5 0s1-4 0-5s-3-1.5-3-3s2-2 3-3s-1.25-3.75 0-5s4 1 5 0s1.5-3 3-3s2 2 3 3s3.75-1.25 5 0s-1 4 0 5s3 1.5 3 3s-2 2-3 3ZM7 12l3 3l7-7" />
  </symbol>

  <symbol id="aggregate" viewBox="0 0 16 16">
    <path fill="currentColor" fill-rule="evenodd"
      d="M2.5 2a.5.5 0 1 0 0 1a.5.5 0 0 0 0-1m0-1a1.5 1.5 0 0 1 1.415 1h1.908a1.5 1.5 0 0 1 1.393.943L8.839 7H12.5a.5.5 0 0 1 0 1H8.839l-1.623 4.057A1.5 1.5 0 0 1 5.823 13H3.915a1.5 1.5 0 1 1 0-1h1.908a.5.5 0 0 0 .464-.314L7.761 8H3.915a1.5 1.5 0 1 1 0-1H7.76L6.287 3.314A.5.5 0 0 0 5.823 3H3.915A1.5 1.5 0 1 1 2.5 1m0 11a.5.5 0 1 1 0 1a.5.5 0 0 1 0-1M3 7.5a.5.5 0 1 0-1 0a.5.5 0 0 0 1 0m9.354-3.354a.5.5 0 0 0-.708.708L13.793 7a.707.707 0 0 1 0 1l-2.147 2.146a.5.5 0 0 0 .708.708L14.5 8.707a1.707 1.707 0 0 0 0-2.414z" />
  </symbol>

  <symbol id="aggregate-large" viewBox="0 0 1024 1024">
    <path fill="currentColor"
      d="M780.8 755.2c-134.1056 0-243.2-109.0944-243.2-243.2s109.0944-243.2 243.2-243.2 243.2 109.0944 243.2 243.2-109.0944 243.2-243.2 243.2z m0-435.2c-105.8688 0-192 86.1312-192 192s86.1312 192 192 192 192-86.1312 192-192-86.1312-192-192-192zM128 256C57.4208 256 0 198.5792 0 128S57.4208 0 128 0s128 57.4208 128 128-57.4208 128-128 128z m0-204.8c-42.3552 0-76.8 34.4448-76.8 76.8s34.4448 76.8 76.8 76.8 76.8-34.4448 76.8-76.8-34.4448-76.8-76.8-76.8zM128 1024C57.4208 1024 0 966.5792 0 896s57.4208-128 128-128 128 57.4208 128 128-57.4208 128-128 128z m0-204.8c-42.3552 0-76.8 34.4448-76.8 76.8s34.4448 76.8 76.8 76.8 76.8-34.4448 76.8-76.8-34.4448-76.8-76.8-76.8zM128 640C57.4208 640 0 582.5792 0 512s57.4208-128 128-128 128 57.4208 128 128-57.4208 128-128 128z m0-204.8c-42.3552 0-76.8 34.4448-76.8 76.8s34.4448 76.8 76.8 76.8 76.8-34.4448 76.8-76.8-34.4448-76.8-76.8-76.8z" />
    <path fill="currentColor"
      d="M281.6 921.6h-51.2a25.6 25.6 0 0 1 0-51.2h51.2a25.6 25.6 0 0 1 0 51.2zM780.8 921.6H409.6a25.6 25.6 0 0 1 0-51.2h345.6V729.6a25.6 25.6 0 0 1 51.2 0v166.4a25.6 25.6 0 0 1-25.6 25.6zM780.8 320a25.6 25.6 0 0 1-25.6-25.6V153.6h-51.2a25.6 25.6 0 0 1 0-51.2h76.8a25.6 25.6 0 0 1 25.6 25.6v166.4a25.6 25.6 0 0 1-25.6 25.6zM576 153.6H230.4a25.6 25.6 0 0 1 0-51.2h345.6a25.6 25.6 0 0 1 0 51.2zM563.2 537.6H230.4a25.6 25.6 0 0 1 0-51.2h332.8a25.6 25.6 0 0 1 0 51.2z" />
  </symbol>

  <symbol id="lookup" viewBox="0 0 32 32">
    <path fill="currentColor"
      d="M28 26h-2c0-1.188.577-2.009 1.085-2.732c.491-.698.915-1.3.915-2.268c0-1.654-1.346-3-3-3s-3 1.346-3 3c0 .967.424 1.57.915 2.268C23.423 23.99 24 24.812 24 26h-2c0-.53-.26-.927-.722-1.582C20.71 23.608 20 22.6 20 21c0-2.757 2.243-5 5-5s5 2.243 5 5c0 1.6-.709 2.608-1.278 3.418C28.26 25.073 28 25.47 28 26m0 2h-6v2h6zM4 24h14v2H4a2 2 0 0 1-2-2V4a2 2 0 0 1 2-2h22a2 2 0 0 1 2 2v10h-2V9H4zM4 7h22V4H4zm2 6h5v-2H6zm7 0h5v-2h-5zm-7 4h5v-2H6zm7 0h5v-2h-5zm-7 4h5v-2H6zm7 0h5v-2h-5z" />
  </symbol>

  <symbol id="lookup-large" viewBox="0 0 2048 2048">
    <path fill="currentColor"
      d="m2048 835l-128-128V256h-512v512h-128V256H768v1408h512v-512h128v512h512v-451l128-128v707H0V128h2048zM640 768H128v384h512zm0 896v-384H128v384zm0-1408H128v384h512zm899 931l162-163h-677V896h677l-162-163l90-90l317 317l-317 317z" />
  </symbol>

  <symbol id="condition" viewBox="0 0 16 16">
    <path fill="currentColor"
      d="m6.918 9.799l-4.82 4.819l2.88-.43l.148.987L0 15.943l.768-5.126l.988.148l-.453 3.033l4.936-4.935a2.003 2.003 0 0 1 1.265-2.885V0h1v6.178a2.003 2.003 0 0 1 1.263 2.884l4.865 4.866l-.443-2.963l.988-.147l.768 5.126l-5.127-.769l.15-.988l2.95.441l-4.83-4.83c-.312.203-.685.32-1.085.32s-.773-.117-1.085-.32" />
  </symbol>

  <symbol id="condition-simple" viewBox="0 0 24 24">
    <g fill="none" stroke="currentColor" stroke-linecap="round" stroke-linejoin="round" stroke-width="2">
      <path d="M22 12h-2M2 9h4m-4 6h4m-1 4q2.667-7 0-14m3 0c10.667 2.1 10.667 12.6 0 14q2.709-7 0-14" />
      <path d="M16 12a2 2 0 1 0 4 0a2 2 0 1 0-4 0" />
    </g>
  </symbol>

  <symbol id="parse" viewBox="0 0 48 48">
    <path fill="none" stroke="currentColor" stroke-linecap="round" stroke-linejoin="round" stroke-width="1"
      d="M18.26 15.678V28.38l8.293 5.08v-12.7z" />
    <path fill="none" stroke="currentColor" stroke-linecap="round" stroke-linejoin="round" stroke-width="1"
      d="M11.88 8.69c0-1.905 1.913-1.905 3.19-1.27l15.948 8.893c2.551 1.27 2.551 1.905 2.551 5.716v19.054c0 1.906-1.914 3.176-3.827 1.906L13.155 32.826c-1.276-.635-1.276-1.905-1.276-3.81z" />
    <path fill="none" stroke="currentColor" stroke-linecap="round" stroke-linejoin="round" stroke-width="1"
      d="M20.955 17.33v9.145l5.597 3.269" />
    <path fill="none" stroke="currentColor" stroke-linecap="round" stroke-linejoin="round" stroke-width="1"
      d="M14.431 7.173V6.15c0-1.905 1.914-1.905 3.19-1.27l15.948 8.892c2.552 1.27 2.552 1.905 2.552 5.716v19.055c0 1.491-1.173 2.594-2.6 2.393" />
  </symbol>

  <symbol id="format" viewBox="0 0 48 48">
    <path fill="none" stroke="currentColor" stroke-linecap="round" stroke-linejoin="round" stroke-width="1"
      d="M30.099 29.214c2.139-6.328-3.554-9.695-6.26-7.71m-7.533.68c1.1 6.589 7.708 6.87 9.157 3.843" />
    <path fill="none" stroke="currentColor" stroke-linecap="round" stroke-linejoin="round" stroke-width="1"
      d="M19.217 30.413c6.442 1.768 9.472-4.11 7.333-6.696" />
    <path fill="none" stroke="currentColor" stroke-linecap="round" stroke-linejoin="round" stroke-width="1"
      d="M39.839 38.538C50.776 12.564 23.041 7.35 17.405 19.429" />
    <path fill="none" stroke="currentColor" stroke-linecap="round" stroke-linejoin="round" stroke-width="1"
      d="M10.178 40.468c26.533 9.502 30.224-18.477 17.855-23.445" />
    <circle cx="24" cy="24" r="21.5" fill="none" stroke="currentColor" stroke-linecap="round" stroke-linejoin="round"
      stroke-width="1" />
    <circle cx="24" cy="24" r="8" fill="none" stroke="currentColor" stroke-linecap="round" stroke-linejoin="round"
      stroke-width="1" />
    <circle cx="24" cy="24" r="2.5" fill="none" stroke="currentColor" stroke-linecap="round" stroke-linejoin="round"
      stroke-width="1" />
    <path fill="none" stroke="currentColor" stroke-linecap="round" stroke-linejoin="round" stroke-width="1"
      d="M8.04 9.595c-10.92 25.982 16.795 31.203 22.422 19.12" />
    <path fill="none" stroke="currentColor" stroke-linecap="round" stroke-linejoin="round" stroke-width="1"
      d="M38.597 8.215C17.115-4.33 6.894 20.76 17.462 28.611" />
    <path fill="none" stroke="currentColor" stroke-linecap="round" stroke-linejoin="round" stroke-width="1"
      d="M27.362 16.741c-6.672-.33-8.355 6.067-5.706 8.127" />
  </symbol>

  <symbol id="show-all" viewBox="0 0 24 24">
    <path fill="currentColor"
      d="M18 12.998h-5v5a1 1 0 0 1-2 0v-5H6a1 1 0 0 1 0-2h5v-5a1 1 0 0 1 2 0v5h5a1 1 0 0 1 0 2" />
  </symbol>

  <symbol id="set-ops" viewBox="0 0 24 24">
    <path fill="currentColor"
      d="M9 5c1.04 0 2.06.24 3 .68c.94-.44 1.96-.68 3-.68a7 7 0 0 1 7 7a7 7 0 0 1-7 7c-1.04 0-2.06-.24-3-.68c-.94.44-1.96.68-3 .68a7 7 0 0 1-7-7a7 7 0 0 1 7-7m-.5 7c0 1.87.79 3.56 2.06 4.75l1-.46c-1.25-1-2.06-2.55-2.06-4.29s.81-3.29 2.06-4.29l-1-.46A6.5 6.5 0 0 0 8.5 12m7 0c0-1.87-.79-3.56-2.06-4.75l-1 .46c1.25 1 2.06 2.55 2.06 4.29s-.81 3.29-2.06 4.29l1 .46A6.5 6.5 0 0 0 15.5 12" />
  </symbol>

  <symbol id="intersect" viewBox="0 0 20 14">
    <path fill="currentColor"
      d="M7 14A7 7 0 1 1 10 .674a7 7 0 1 1 0 12.653A7 7 0 0 1 7 14M7 2a5 5 0 1 0 1 9.9A6.98 6.98 0 0 1 6 7a6.98 6.98 0 0 1 2-4.9A5 5 0 0 0 7 2m7 5a6.98 6.98 0 0 1-2 4.9a5 5 0 1 0 0-9.8A6.98 6.98 0 0 1 14 7" />
  </symbol>

  <symbol id="union" viewBox="0 0 100 100">
    <path fill="currentColor"
      d="M65 10.875c-8.935 0-17.088 3.375-23.277 8.906A35 35 0 0 0 35 19.125c-19.3 0-35 15.7-35 35s15.7 35 35 35c8.935 0 17.088-3.375 23.277-8.906c2.176.427 4.423.656 6.723.656c19.3 0 35-15.7 35-35s-15.7-35-35-35M48.805 21.908a35.1 35.1 0 0 1 9.093 5.684l-3.265 3.787a30.2 30.2 0 0 0-7.799-4.873zM35.925 26.4l4.155 2.784a30.2 30.2 0 0 0-3.892 8.332l-4.801-1.399a35.1 35.1 0 0 1 4.539-9.717m25.766 5.004a34.8 34.8 0 0 1 5.621 9.143l-4.61 1.93a29.8 29.8 0 0 0-4.815-7.827zm-31.408 9.977l4.96.648a29.8 29.8 0 0 0 .234 9.186l-4.918.896a34.8 34.8 0 0 1-.276-10.73m38.719 4.273c.43 1.741.729 3.515.89 5.301c.163 1.786.187 3.586.073 5.379l-4.988-.318a30.3 30.3 0 0 0-.83-9.162zM36.645 55.682c1 2.908 2.452 5.665 4.289 8.127l-4.006 2.99a34.8 34.8 0 0 1-5.012-9.49zM64.33 60.58l4.88 1.082a34.9 34.9 0 0 1-3.905 9.992l-4.323-2.513a30 30 0 0 0 3.348-8.56m-20.363 6.701a30.1 30.1 0 0 0 7.472 5.364l-2.261 4.459a35.1 35.1 0 0 1-8.713-6.254z" />
  </symbol>

  <symbol id="string-ops" viewBox="0 0 24 24">
    <path fill="currentColor"
      d="M3 5a2 2 0 0 1 2-2h14a2 2 0 0 1 2 2v14a2 2 0 0 1-2 2H5a2 2 0 0 1-2-2zm9.5 6h-1A1.5 1.5 0 0 1 10 9.5A1.5 1.5 0 0 1 11.5 8h1A1.5 1.5 0 0 1 14 9.5h2A3.5 3.5 0 0 0 12.5 6h-1A3.5 3.5 0 0 0 8 9.5a3.5 3.5 0 0 0 3.5 3.5h1a1.5 1.5 0 0 1 1.5 1.5a1.5 1.5 0 0 1-1.5 1.5h-1a1.5 1.5 0 0 1-1.5-1.5H8a3.5 3.5 0 0 0 3.5 3.5h1a3.5 3.5 0 0 0 3.5-3.5a3.5 3.5 0 0 0-3.5-3.5" />
  </symbol>

  <symbol id="string-builder" viewBox="0 0 32 32">
    <path fill="currentColor"
      d="M25.06 13.72c-.944-5.173-5.46-9.095-10.903-9.095v4a7.104 7.104 0 0 1 7.094 7.094a7.104 7.104 0 0 1-7.093 7.092v4.002c5.442-.004 9.96-3.926 10.903-9.096h4.69v-4h-4.69zm-4.685 2a6.216 6.216 0 0 0-12.103-2.002H1.438v4h6.834a6.216 6.216 0 0 0 12.104-2z" />
  </symbol>

  <symbol id="loop" viewBox="0 0 8 8">
    <path fill="currentColor" d="M1 0v2h1V1h4v2H5l1.5 2.5L8 3H7V0zm.5 2.5L0 5h1v3h6V6H6v1H2V5h1z" />
  </symbol>

  <symbol id="switch" viewBox="0 0 32 32">
    <circle cx="9" cy="7" r="1" fill="currentColor" />
    <path fill="currentColor"
      d="M27 22v-4a2 2 0 0 0-2-2h-8v-4h9a2 2 0 0 0 2-2V4a2 2 0 0 0-2-2H6a2 2 0 0 0-2 2v6a2 2 0 0 0 2 2h9v4H7a2 2 0 0 0-2 2v4H4a2 2 0 0 0-2 2v4a2 2 0 0 0 2 2h4a2 2 0 0 0 2-2v-4a2 2 0 0 0-2-2H7v-4h8v4h-1a2 2 0 0 0-2 2v4a2 2 0 0 0 2 2h4a2 2 0 0 0 2-2v-4a2 2 0 0 0-2-2h-1v-4h8v4h-1a2 2 0 0 0-2 2v4a2 2 0 0 0 2 2h4a2 2 0 0 0 2-2v-4a2 2 0 0 0-2-2zM8 28H4v-4h4zm10-4v4h-4v-4zM6 10V4h20v6zm22 18h-4v-4h4z" />
  </symbol>

  <symbol id="until-loop" viewBox="0 0 128 128">
    <path fill="#8b5738"
      d="M23.36 116.32v-7.42c7.4-1.9 67.86 0 81.28 0v7.42c0 4.24-18.2 7.68-40.64 7.68s-40.64-3.44-40.64-7.68" />
    <ellipse cx="64" cy="108.48" fill="#ffb17a" rx="40.64" ry="7.68" />
    <ellipse cx="64" cy="108.48" fill="#cc8552" rx="40.64" ry="7.68" />
    <path fill="#81d4fa"
      d="M69.96 65.49c-.75-.31-1.07-.92-1.07-1.73s.25-1.39.98-1.64c4.61-1.86 27.77-10.73 27.77-38.36l-.18-4.82l-66.98-.08l-.12 5.07c0 26.79 23.08 36.25 27.68 38.11c.75.31 1.22.82 1.22 1.73s-.39 1.39-1.13 1.64c-4.61 1.86-27.77 10.73-27.77 38.36a6.95 6.95 0 0 0 5.34 6.5c5.04 1.19 14.38 2.57 30.53 2.57c13.91 0 21.7-1.01 26.03-2.03c3.08-.73 5.29-3.44 5.36-6.6l.01-.61c.01-26.79-23.06-36.25-27.67-38.11"
      opacity="0.75" />
    <path fill="#1d44b3" d="m97.46 18.94l-66.98-.08l-.11 4.52S37.62 27.1 64 27.1s33.63-3.72 33.63-3.72z"
      opacity="0.39" />
    <path fill="#8b5738"
      d="M23.36 17.94v-7.87c7.18-.96 70.91 0 81.28 0v7.87c0 3.36-18.2 6.08-40.64 6.08s-40.64-2.72-40.64-6.08" />
    <ellipse cx="64" cy="10.08" fill="#cc8552" rx="40.64" ry="6.08" />
    <path fill="#ffca28"
      d="M90.59 108.57c.92-.27 1.42-1.31.97-2.16c-3.14-5.94-16.54-6.11-21.61-17.27c-3.38-7.45-3.57-17.81-3.67-22.24c-.14-5.99 2.85-7.28 2.85-7.28c14.16-5.7 24.57-18.86 25.17-30.61c.06-1.17-22.18 9.17-29.83 10.66c-14.14 2.76-28.23-.87-28.31-.37c5.24 11.47 15.79 17.46 22.86 20.32c1.68.69 4.46 3.3 4.37 11.14c-.07 5.61-.77 20.4-10.44 26.69c-3.64 2.37-11.69 5.84-13.19 9.61c-.33.83.14 1.77 1.01 1.99c2.76.7 11.18 1.93 24.27 1.93c10.29.01 20.45-.93 25.55-2.41" />
    <path fill="#e2a610"
      d="M42.37 43.29c5.36 2.77 17.12 6.72 22.92 4.72s28.23-16.01 29-19c.96-3.7-26 5.71-35.49 7.91c-6.43 1.49-18.71.72-21.47 1.3c-2.75.57.11 2.52 5.04 5.07" />
    <path fill="#fff"
      d="M45.79 37.66c1.26 2.94 3.56 9.61.56 10.75c-3 1.15-7.39-3.11-9.47-7.39s-1.89-9.96 1.25-10.05s5.99 2.8 7.66 6.69M42.9 80.6c-3.13 3.66-5.48 8.58-4.59 13.33c.94 5.01 5.6 3.63 7.22 2.36c5.16-4.05 3.75-9.24 7.74-15.07c.68-1 3.52-4.13 3.12-6.1c-.24-1.17-2.96-1.77-7.91.71c-2.18 1.1-3.97 2.9-5.58 4.77"
      opacity="0.6" />
  </symbol>

  <symbol id="file-append" viewBox="0 0 24 24">
    <path fill="currentColor"
      d="M6 2c-1.11 0-2 .89-2 2v16a2 2 0 0 0 2 2h4v-1.91L12.09 18H6v-2h8.09l2-2H6v-2h12.09L20 10.09V8l-6-6zm7 1.5L18.5 9H13zm7.15 9.5a.55.55 0 0 0-.4.16l-1.02 1.02l2.09 2.08l1.02-1.01c.21-.22.21-.58 0-.79l-1.3-1.3a.54.54 0 0 0-.39-.16m-2.01 1.77L12 20.92V23h2.08l6.15-6.15z" />
  </symbol>

  <symbol id="file-append-large" viewBox="0 0 56 56">
    <path fill="currentColor"
      d="M6.168 11.36h43.64c1.008 0 1.805-.774 1.805-1.782c0-.984-.797-1.758-1.804-1.758H6.168c-1.008 0-1.781.774-1.781 1.758a1.75 1.75 0 0 0 1.78 1.781m0 12.28h43.64c1.008 0 1.805-.773 1.805-1.78c0-.985-.797-1.758-1.804-1.758H6.168c-1.008 0-1.781.773-1.781 1.757c0 1.008.773 1.782 1.78 1.782M10.058 43h6.891v2.438c0 1.921 1.828 2.624 3.281 1.453l6.352-5.086c.96-.774.96-2.11 0-2.86l-6.352-5.062c-1.406-1.149-3.28-.422-3.28 1.406v2.344h-6.376c-.562 0-.797-.305-.797-.797v-4.5c0-1.898-.984-3.07-2.695-3.07s-2.695 1.172-2.695 3.07v5.32c0 3.305 2.367 5.344 5.672 5.344m23.743-7.078H49.81a1.786 1.786 0 0 0 1.804-1.781c0-.985-.797-1.758-1.804-1.758H33.8c-1.008 0-1.782.773-1.782 1.758c0 .984.774 1.78 1.782 1.78m0 12.258h16.008c1.008 0 1.804-.774 1.804-1.758s-.797-1.781-1.804-1.781H33.8a1.766 1.766 0 0 0-1.782 1.78c0 .985.774 1.759 1.782 1.759" />
  </symbol>

  <symbol id="custom-code" viewBox="0 0 32 32">
    <path fill="#f5de19" d="M2 2h28v28H2z" />
    <path
      d="M20.809 23.875a2.87 2.87 0 0 0 2.6 1.6c1.09 0 1.787-.545 1.787-1.3c0-.9-.716-1.222-1.916-1.747l-.658-.282c-1.9-.809-3.16-1.822-3.16-3.964c0-1.973 1.5-3.476 3.853-3.476a3.89 3.89 0 0 1 3.742 2.107L25 18.128A1.79 1.79 0 0 0 23.311 17a1.145 1.145 0 0 0-1.259 1.128c0 .789.489 1.109 1.618 1.6l.658.282c2.236.959 3.5 1.936 3.5 4.133c0 2.369-1.861 3.667-4.36 3.667a5.06 5.06 0 0 1-4.795-2.691Zm-9.295.228c.413.733.789 1.353 1.693 1.353c.864 0 1.41-.338 1.41-1.653v-8.947h2.631v8.982c0 2.724-1.6 3.964-3.929 3.964a4.085 4.085 0 0 1-3.947-2.4Z" />
  </symbol>

  <symbol id="ai-processor" viewBox="0 0 24 24">
    <path fill="currentColor"
      d="M21 11V9h-2V7a2.006 2.006 0 0 0-2-2h-2V3h-2v2h-2V3H9v2H7a2.006 2.006 0 0 0-2 2v2H3v2h2v2H3v2h2v2a2.006 2.006 0 0 0 2 2h2v2h2v-2h2v2h2v-2h2a2.006 2.006 0 0 0 2-2v-2h2v-2h-2v-2Zm-4 6H7V7h10Z" />
    <path fill="currentColor"
      d="M11.361 8h-1.345l-2.01 8h1.027l.464-1.875h2.316L12.265 16h1.062Zm-1.729 5.324L10.65 8.95h.046l.983 4.374ZM14.244 8h1v8h-1z" />
  </symbol>

  <symbol id="url-builder" viewBox="0 0 32 32">
    <g fill="currentColor">
      <path
        d="M27.527 4.318c-3.09-3.09-8.12-3.09-11.21 0l-4 4q-.34.345-.63.72a9.1 9.1 0 0 1 3.84-.131q.387.068.77.17l.009.062l2.421-2.421a4.52 4.52 0 0 1 6.4 0c1.76 1.77 1.77 4.64 0 6.4l-4 4c-.76.76-1.73 1.17-2.72 1.28c-1.31.14-2.68-.27-3.68-1.28a4.5 4.5 0 0 1-1.24-2.417a3.25 3.25 0 0 0-1.886.91l-1.086 1.087a7.9 7.9 0 0 0 1.812 2.82a7.86 7.86 0 0 0 4.21 2.19a7.99 7.99 0 0 0 7-2.2l4-4c3.08-3.07 3.08-8.1-.01-11.19" />
      <path
        d="M19.528 23.538q.35-.356.646-.742a9.25 9.25 0 0 1-3.851.143h-.001a9 9 0 0 1-.83-.186l-2.375 2.375a4.52 4.52 0 0 1-6.4 0a4.52 4.52 0 0 1 0-6.4l4-4c.76-.76 1.73-1.17 2.72-1.28c1.31-.14 2.68.27 3.68 1.28a4.5 4.5 0 0 1 1.242 2.416a3.25 3.25 0 0 0 1.885-.91l1.086-1.087a7.9 7.9 0 0 0-1.812-2.82a7.86 7.86 0 0 0-4.21-2.19a7.9 7.9 0 0 0-4.61.56c-.86.38-1.67.92-2.38 1.63l-4 4c-3.09 3.09-3.09 8.12 0 11.21s8.12 3.09 11.21 0z" />
    </g>
  </symbol>

  <symbol id="regex" viewBox="0 0 32 32">
    <path fill="currentColor"
      d="M25.06 13.72c-.944-5.173-5.46-9.095-10.903-9.095v4a7.104 7.104 0 0 1 7.094 7.094a7.104 7.104 0 0 1-7.093 7.092v4.002c5.442-.004 9.96-3.926 10.903-9.096h4.69v-4h-4.69zm-4.685 2a6.216 6.216 0 0 0-12.103-2.002H1.438v4h6.834a6.216 6.216 0 0 0 12.104-2z" />
  </symbol>

  <symbol id="sort" viewBox="0 0 48 48">
    <path fill="none" stroke="currentColor" stroke-linecap="round" stroke-linejoin="round" stroke-width="4"
      d="M19 6v36M7 17.9l12-12m10 36.2v-36m0 36l12-12" />
  </symbol>

  <symbol id="schema-validator" viewBox="0 0 32 32">
    <g fill="#d2d2d2" stroke-width="0.353">
      <path
        d="M9.18 29.796c-1.807-.393-3.164-1.452-3.637-2.838c-.329-.967-.282-2.535.14-4.654c.202-1.017.368-2.232.367-2.699c0-1.551-.714-2.393-2.128-2.51l-.816-.068V15.03l.773-.105c1.128-.153 1.563-.43 1.91-1.214c.255-.577.287-.863.211-1.867a24 24 0 0 0-.386-2.584c-.413-1.954-.396-3.541.049-4.496c.655-1.406 2.269-2.443 4.145-2.663l.807-.095v2.101h-.543c-.74 0-1.773.527-2.038 1.039c-.253.49-.273 1.195-.066 2.421c.327 1.938.437 3.797.282 4.767c-.177 1.11-.824 2.419-1.535 3.108l-.493.478l.674.827c.831 1.02 1.154 1.732 1.354 2.981c.158.988.035 3.04-.28 4.68c-.44 2.289.068 3.193 1.945 3.466l.7.102v1.022c0 1.165.071 1.125-1.436.798zm12.202-.81v-1.014l.856-.176c.944-.196 1.691-.778 1.86-1.45c.053-.212-.047-1.321-.222-2.464c-.573-3.727-.256-5.65 1.19-7.219l.62-.67l-.464-.529c-1.66-1.89-1.948-3.569-1.316-7.666c.319-2.064.319-2.084.036-2.577c-.332-.579-1.37-1.158-2.076-1.158h-.484v-1.03c0-1.174-.024-1.158 1.355-.866c1.654.351 2.84 1.191 3.454 2.448c.353.721.406 1.001.396 2.091c-.006.692-.149 1.954-.317 2.804c-.626 3.157-.57 3.997.32 4.813c.412.38.684.49 1.406.571l.895.102v2.023h-.7c-.898 0-1.64.38-2.019 1.03c-.397.684-.372 2.173.072 4.344c.379 1.845.44 3.53.162 4.477c-.292 1-1.594 2.21-2.815 2.62c-.527.176-1.239.363-1.583.416l-.626.095z" />
      <path
        d="M12.831 27.325c-.426-.542-.364-1.476.159-2.392c.387-.678 2.007-2.9 3.176-4.357l.472-.588l-.752-2.181c-.844-2.446-.839-2.493.274-2.66l.613-.09l.684 1.398c.377.769.739 1.398.805 1.398s.74-.733 1.5-1.628c1.318-1.555 1.4-1.624 1.847-1.541c.269.05.508.019.565-.073c.133-.214.513.103.513.43c0 .133-.19.472-.421.754c-.946 1.15-2.965 3.87-2.965 3.994c0 .074.407 1.024.904 2.111l.905 1.977l-.275.411c-.151.226-.276.47-.279.542c-.002.072-.115.202-.252.288c-.348.22-.604-.048-1.665-1.733c-.486-.771-.932-1.404-.99-1.406c-.131-.005-1.582 2.142-2.704 3.998c-.99 1.637-.81 1.428-1.363 1.586c-.4.115-.499.083-.751-.238m.104-10.263c-.897-1.606-2.511-3.935-3.162-4.565c-.331-.32-.602-.657-.602-.75c0-.25.675-.508 1.332-.508c.709 0 1.459.617 2.128 1.75c.243.41.483.748.533.75c.05.001.337-.69.639-1.535c.645-1.812 2.346-5.333 3.015-6.24c.572-.777 1.43-1.195 2.463-1.2c1.35-.006 1.353.054.085 1.376c-1.934 2.017-2.822 3.677-4.695 8.78c-.52 1.416-.998 2.703-1.061 2.859c-.096.236-.208.117-.675-.717" />
    </g>
  </symbol>

  <symbol id="translate" viewBox="0 0 16 16">
    <g fill="currentColor">
      <path d="M4.545 6.714L4.11 8H3l1.862-5h1.284L8 8H6.833l-.435-1.286zm1.634-.736L5.5 3.956h-.049l-.679 2.022z" />
      <path
        d="M0 2a2 2 0 0 1 2-2h7a2 2 0 0 1 2 2v3h3a2 2 0 0 1 2 2v7a2 2 0 0 1-2 2H7a2 2 0 0 1-2-2v-3H2a2 2 0 0 1-2-2zm2-1a1 1 0 0 0-1 1v7a1 1 0 0 0 1 1h7a1 1 0 0 0 1-1V2a1 1 0 0 0-1-1zm7.138 9.995q.289.451.63.846c-.748.575-1.673 1.001-2.768 1.292c.178.217.451.635.555.867c1.125-.359 2.08-.844 2.886-1.494c.777.665 1.739 1.165 2.93 1.472c.133-.254.414-.673.629-.89c-1.125-.253-2.057-.694-2.82-1.284c.681-.747 1.222-1.651 1.621-2.757H14V8h-3v1.047h.765c-.318.844-.74 1.546-1.272 2.13a6 6 0 0 1-.415-.492a2 2 0 0 1-.94.31" />
    </g>
  </symbol>

  <symbol id="extract-structure" viewBox="0 0 24 24">
    <path fill="currentColor"
      d="M5 12q0 2.65 1.725 4.625t4.35 2.325q.4.05.663.35T12 20q0 .425-.363.7t-.812.225q-3.375-.425-5.6-2.963T3 12q0-3.4 2.213-5.937T10.8 3.075q.475-.05.838.213T12 4q0 .4-.262.7t-.663.35q-2.625.35-4.35 2.325T5 12m12.175 1H10q-.425 0-.712-.288T9 12t.288-.712T10 11h7.175L15.3 9.125q-.3-.3-.3-.712t.3-.713t.7-.3t.7.3l3.6 3.6q.3.3.3.7t-.3.7l-3.6 3.6q-.3.3-.7.288t-.7-.313t-.3-.7t.3-.7z" />
  </symbol>


  <symbol id="output-dest" xmlns="http://www.w3.org/2000/svg" width="24" height="24" viewBox="0 0 24 24">
    <path fill="currentColor"
      d="m13 18.175l1.9-1.875q.275-.275.7-.275t.7.275t.275.7t-.275.7l-3.6 3.6q-.275.275-.7.275t-.7-.275l-3.6-3.6q-.275-.275-.275-.7t.275-.7t.7-.275t.7.275l1.9 1.875V9q0-.425.288-.712T12 8t.713.288T13 9zM12 4Q8.65 4 6.325 6.325T4 12q0 .825.162 1.625t.488 1.55q.175.425.112.85t-.387.75q-.3.3-.737.138t-.663-.638Q2.5 15.25 2.25 14.188T2 12q0-2.075.788-3.9t2.137-3.175T8.1 2.788T12 2t3.9.788t3.175 2.137T21.213 8.1T22 12q0 1.125-.238 2.213t-.737 2.112q-.225.45-.662.6t-.738-.15t-.387-.725t.087-.825q.35-.775.513-1.587T20 12q0-3.35-2.325-5.675T12 4" />
  </symbol>

  <symbol id="download" viewBox="0 0 24 24">
    <path fill="currentColor" d="M19 9h-4V3H9v6H5l7 7zM5 18v2h14v-2z" />
  </symbol>

  <symbol id="copy" viewBox="0 0 20 20">
    <path fill="currentColor"
      d="M6.644 2.983a.25.25 0 0 0-.253.252c0 .139.113.251.253.251h3.713c.14 0 .253-.112.253-.251a.25.25 0 0 0-.253-.252zm3.713-1.342c.734 0 1.353.49 1.544 1.16l2.175.001c.621.004 1.122.205 1.432.638c.266.372.372.85.345 1.387L15.85 17.84c.042.552-.062 1.04-.328 1.445c-.312.473-.821.71-1.452.716H3.14c-.76-.03-1.323-.209-1.675-.609c-.327-.371-.47-.88-.464-1.5V4.84c-.013-.6.154-1.106.518-1.48c.376-.384.932-.554 1.647-.559h1.935c.19-.67.809-1.16 1.543-1.16zm0 3.187H6.644c-.546 0-1.027-.27-1.317-.684H3.17c-.383.002-.602.07-.682.152c-.091.093-.144.252-.138.531v13.07c-.003.325.052.522.13.61c.054.061.286.135.685.151h10.9c.2-.002.28-.04.326-.109c.091-.138.133-.334.11-.658l.001-13.096c.014-.293-.027-.482-.096-.578c-.026-.035-.116-.072-.336-.073h-2.397c-.29.414-.771.684-1.317.684M17.2 0c.994 0 1.8.801 1.8 1.79v14.082c0 .988-.806 1.79-1.8 1.79h-1.958v-1.343h1.957c.249 0 .45-.2.45-.447V1.789a.45.45 0 0 0-.45-.447H9.643c-.248 0-.45.2-.45.447v.157h-1.35v-.157C7.843.801 8.649 0 9.643 0zM8.196 11.751c.373 0 .675.3.675.671c0 .37-.302.671-.675.671H4.145a.673.673 0 0 1-.676-.67c0-.371.303-.672.676-.672zm4.052-2.684c.372 0 .675.3.675.671c0 .37-.303.671-.675.671H4.145a.673.673 0 0 1-.676-.67c0-.371.303-.672.676-.672zm0-2.684c.372 0 .675.3.675.671s-.303.671-.675.671H4.145a.673.673 0 0 1-.676-.67c0-.371.303-.672.676-.672z" />
  </symbol>

  <symbol id="drive-upload" viewBox="0 0 256 229">
    <path fill="#0066da"
      d="m19.354 196.034l11.29 19.5c2.346 4.106 5.718 7.332 9.677 9.678q17.009-21.591 23.68-33.137q6.77-11.717 16.641-36.655q-26.604-3.502-40.32-3.502q-13.165 0-40.322 3.502c0 4.545 1.173 9.09 3.519 13.196z" />
    <path fill="#ea4335"
      d="M215.681 225.212c3.96-2.346 7.332-5.572 9.677-9.677l4.692-8.064l22.434-38.855a26.57 26.57 0 0 0 3.518-13.196q-27.315-3.502-40.247-3.502q-13.899 0-40.248 3.502q9.754 25.075 16.422 36.655q6.724 11.683 23.752 33.137" />
    <path fill="#00832d"
      d="M128.001 73.311q19.68-23.768 27.125-36.655q5.996-10.377 13.196-33.137C164.363 1.173 159.818 0 155.126 0h-54.25C96.184 0 91.64 1.32 87.68 3.519q9.16 26.103 15.544 37.154q7.056 12.213 24.777 32.638" />
    <path fill="#2684fc"
      d="M175.36 155.42H80.642l-40.32 69.792c3.958 2.346 8.503 3.519 13.195 3.519h148.968c4.692 0 9.238-1.32 13.196-3.52z" />
    <path fill="#00ac47"
      d="M128.001 73.311L87.681 3.52c-3.96 2.346-7.332 5.571-9.678 9.677L3.519 142.224A26.57 26.57 0 0 0 0 155.42h80.642z" />
    <path fill="#ffba00"
      d="m215.242 77.71l-37.243-64.514c-2.345-4.106-5.718-7.331-9.677-9.677l-40.32 69.792l47.358 82.109h80.496c0-4.546-1.173-9.09-3.519-13.196z" />
  </symbol>

  <symbol id="email" viewBox="0 0 512 512">
    <path fill="#96a9b2"
      d="M511.824 425.007c1.941-5.245-220.916-173.519-220.916-173.519c-27.9-20.589-42.574-20.913-70.164 0c0 0-222.532 168.138-220.659 173.311l-.045.038c.023.045.06.076.091.117a48.5 48.5 0 0 0 8.119 14.157c1.473 1.786 3.248 3.282 4.955 4.837l-.083.064c.136.121.317.177.453.298c7.235 6.454 16.359 10.634 26.495 11.827c.159.019.287.102.446.121h.612c1.541.147 3.006.517 4.584.517h420.721c20.717 0 38.269-13.028 45.241-31.291c.083-.136.211-.234.287-.374z" />
    <path fill="#b9c5c6"
      d="M256.133 232.176L1.216 423.364V152.515c0-26.4 21.397-47.797 47.797-47.797h414.24c26.4 0 47.797 21.397 47.797 47.797v270.849z" />
    <path fill="#edece6"
      d="m4.189 135.896l217.645 170.949c27.47 20.271 41.918 20.591 69.083 0L508.22 136.167c-3.77-6.834-9.414-12.233-15.869-16.538l2.989-2.342c-7.295-6.641-16.62-10.946-26.971-12.058l-424.455.015c-10.322 1.097-19.662 5.417-26.942 12.043l2.967 2.313c-6.38 4.245-11.972 9.551-15.75 16.296" />
    <path fill="#dce2e2"
      d="M4.118 136.254C2.207 141.419 221.63 307.099 221.63 307.099c27.47 20.271 41.918 20.591 69.083 0c0 0 219.103-165.546 217.258-170.64l.045-.037c-.022-.045-.059-.074-.089-.115a47.7 47.7 0 0 0-7.994-13.939c-1.45-1.759-3.198-3.231-4.878-4.763l.082-.063c-.134-.119-.312-.175-.446-.294c-7.124-6.354-16.107-10.47-26.086-11.645c-.156-.019-.283-.1-.439-.119h-.602c-1.517-.145-2.96-.509-4.514-.509H48.81c-20.398 0-37.68 12.828-44.543 30.809c-.082.134-.208.231-.283.368z" />
    <path fill="#597b91"
      d="M291.401 154.645h-38.632a6.155 6.155 0 0 0-6.155 6.155v21.722a6.155 6.155 0 0 0 6.155 6.155h31.415a6.155 6.155 0 0 1 6.155 6.155v11.616a6.155 6.155 0 0 1-6.155 6.155h-31.415a6.155 6.155 0 0 0-6.155 6.155v23.578a6.155 6.155 0 0 0 6.155 6.155h41.316a6.155 6.155 0 0 1 6.155 6.155v12.441a6.155 6.155 0 0 1-6.155 6.155h-75.76a6.155 6.155 0 0 1-6.155-6.155V136.461a6.155 6.155 0 0 1 6.155-6.155h74.81c3.749 0 6.627 3.322 6.092 7.033l-1.733 12.028a6.156 6.156 0 0 1-6.093 5.278" />
  </symbol>

  <symbol id="send-email" viewBox="0 0 256 193">
    <path fill="#4285f4" d="M58.182 192.05V93.14L27.507 65.077L0 49.504v125.091c0 9.658 7.825 17.455 17.455 17.455z" />
    <path fill="#34a853"
      d="M197.818 192.05h40.727c9.659 0 17.455-7.826 17.455-17.455V49.505l-31.156 17.837l-27.026 25.798z" />
    <path fill="#ea4335"
      d="m58.182 93.14l-4.174-38.647l4.174-36.989L128 69.868l69.818-52.364l4.669 34.992l-4.669 40.644L128 145.504z" />
    <path fill="#fbbc04" d="M197.818 17.504V93.14L256 49.504V26.231c0-21.585-24.64-33.89-41.89-20.945z" />
    <path fill="#c5221f" d="m0 49.504l26.759 20.07L58.182 93.14V17.504L41.89 5.286C24.61-7.66 0 4.646 0 26.23z" />
  </symbol>

  <symbol id="email-send" viewBox="0 0 256 193">
    <path fill="#4285f4" d="M58.182 192.05V93.14L27.507 65.077L0 49.504v125.091c0 9.658 7.825 17.455 17.455 17.455z" />
    <path fill="#34a853"
      d="M197.818 192.05h40.727c9.659 0 17.455-7.826 17.455-17.455V49.505l-31.156 17.837l-27.026 25.798z" />
    <path fill="#ea4335"
      d="m58.182 93.14l-4.174-38.647l4.174-36.989L128 69.868l69.818-52.364l4.669 34.992l-4.669 40.644L128 145.504z" />
    <path fill="#fbbc04" d="M197.818 17.504V93.14L256 49.504V26.231c0-21.585-24.64-33.89-41.89-20.945z" />
    <path fill="#c5221f" d="m0 49.504l26.759 20.07L58.182 93.14V17.504L41.89 5.286C24.61-7.66 0 4.646 0 26.23z" />
  </symbol>

  <symbol id="database-write" viewBox="0 0 32 32">
    <path fill="#ffca28"
      d="M16 24c-5.525 0-10-.9-10-2v4c0 1.1 4.475 2 10 2s10-.9 10-2v-4c0 1.1-4.475 2-10 2m0-8c-5.525 0-10-.9-10-2v4c0 1.1 4.475 2 10 2s10-.9 10-2v-4c0 1.1-4.475 2-10 2m0-12C10.477 4 6 4.895 6 6v4c0 1.1 4.475 2 10 2s10-.9 10-2V6c0-1.105-4.477-2-10-2" />
  </symbol>

  <symbol id="http-post" viewBox="0 0 24 24">
    <path fill="currentColor"
      d="M1 15V9h1.5v2h2V9H6v6H4.5v-2.5h-2V15zm7.5 0v-4.5H7V9h4.5v1.5H10V15zm5.5 0v-4.5h-1.5V9H17v1.5h-1.5V15zm4 0V9h3.5q.6 0 1.05.45T23 10.5v1q0 .6-.45 1.05T21.5 13h-2v2zm1.5-3.5h2v-1h-2z" />
  </symbol>

  <symbol id="http-post-large" viewBox="0 0 24 24">
    <path fill="none" stroke="currentColor" stroke-linecap="round" stroke-linejoin="round" stroke-width="2"
      d="M3 12h2a2 2 0 1 0 0-4H3v8m14-8h4m-2 0v8m-9-8v6a2 2 0 1 0 4 0V8" />
  </symbol>

  <symbol id="ai-plumber" viewBox="0 0 128 128">
    <linearGradient id="SVGVlt1DGZC" x1="50.039" x2="58.797" y1="68.904" y2="68.904"
      gradientTransform="rotate(45.001 55.992 74.727)scale(1 1.1165)" gradientUnits="userSpaceOnUse">
      <stop offset=".595" stop-color="#616161" />
      <stop offset=".775" stop-color="#565656" />
      <stop offset="1" stop-color="#424242" />
    </linearGradient>
    <path fill="url(#SVGVlt1DGZC)" d="m10.8 123.89l-6.19-6.2l91.23-91.23l6.19 6.19z" />
    <linearGradient id="SVGFKsVOd2n" x1="88.88" x2="95.665" y1="34.518" y2="41.304" gradientUnits="userSpaceOnUse">
      <stop offset=".262" stop-color="#f5f5f5" />
      <stop offset=".466" stop-color="#eaeaea" />
      <stop offset=".822" stop-color="#cdcdcd" />
      <stop offset=".989" stop-color="#bdbdbd" />
    </linearGradient>
    <path fill="url(#SVGFKsVOd2n)"
      d="M100.04 28.46c-2.25-2.25-4.19-2-4.19-2L79.73 42.58c.95-.21 2.62.6 4.11 2.08c1.48 1.48 2.29 3.15 2.08 4.11l16.12-16.12c-.01 0 .25-1.93-2-4.19" />
    <linearGradient id="SVG891lA0Cg" x1="13.913" x2="20.715" y1="109.476" y2="116.277" gradientUnits="userSpaceOnUse">
      <stop offset=".262" stop-color="#f5f5f5" />
      <stop offset=".466" stop-color="#eaeaea" />
      <stop offset=".822" stop-color="#cdcdcd" />
      <stop offset=".989" stop-color="#bdbdbd" />
    </linearGradient>
    <path fill="url(#SVG891lA0Cg)"
      d="M25.1 103.4c-2.25-2.25-4.19-2-4.19-2L4.74 117.56c.95-.21 2.67.56 4.16 2.04c1.48 1.48 2.25 3.21 2.04 4.16l16.16-16.17s.25-1.94-2-4.19" />
    <ellipse cx="7.8" cy="120.7" fill="#9e9e9e" rx="1.94" ry="4.38" transform="rotate(-45.001 7.798 120.7)" />
    <linearGradient id="SVGrZhz9dPM" x1="68.386" x2="102.984" y1="60.107" y2="25.509" gradientUnits="userSpaceOnUse">
      <stop offset="0" stop-color="#fada80" stop-opacity="0" />
      <stop offset="1" stop-color="#fada80" />
    </linearGradient>
    <path fill="url(#SVGrZhz9dPM)"
      d="M95.82 26.48L27.88 94.43c-.76.76.01 2.76 1.72 4.46c1.71 1.71 3.71 2.48 4.46 1.72l67.95-67.95s.42-1.88-1.98-4.21s-4.21-1.97-4.21-1.97"
      opacity="0.85" />
    <linearGradient id="SVGnDlaJdgW" x1="-2.51" x2="21.434" y1="131.003" y2="107.059" gradientUnits="userSpaceOnUse">
      <stop offset="0" stop-color="#1a237e" />
      <stop offset=".186" stop-color="#1d2a87" stop-opacity="0.814" />
      <stop offset=".49" stop-color="#243da0" stop-opacity="0.51" />
      <stop offset=".873" stop-color="#2f5cc7" stop-opacity="0.127" />
      <stop offset="1" stop-color="#3367d6" stop-opacity="0" />
    </linearGradient>
    <path fill="url(#SVGnDlaJdgW)"
      d="M72.59 49.71L4.65 117.66c-.76.76.01 2.76 1.72 4.46c1.71 1.71 3.71 2.48 4.46 1.72L78.79 55.9s.42-1.88-1.98-4.21c-2.41-2.32-4.22-1.98-4.22-1.98"
      opacity="0.22" />
    <radialGradient id="SVGpRFWdeRq" cx="75.918" cy="23.046" r="14.784" gradientTransform="rotate(2.144 75.14 23.029)"
      gradientUnits="userSpaceOnUse">
      <stop offset="0" stop-color="#ffeb3b" />
      <stop offset="1" stop-color="#fbc02d" />
    </radialGradient>
    <path fill="url(#SVGpRFWdeRq)"
      d="m68.37 18.82l5.98-5.96c.33-.33.9-.06.85.41l-.77 6.99c-.03.27.16.52.44.55l8.56 1.02c.5.06.61.74.14.95l-8.92 3.99c-.13.06-.23.18-.27.32l-2.58 8.85c-.12.43-.7.49-.91.1l-3.99-7.25a.51.51 0 0 0-.48-.26l-7.66.62a.497.497 0 0 1-.39-.85l5.08-4.95c.15-.14.19-.37.11-.56l-2.69-6.15c-.18-.42.25-.85.67-.65l6.29 2.94c.17.08.39.04.54-.11" />
    <radialGradient id="SVGOq5wUbvK" cx="99.385" cy="64.955" r="11.883"
      gradientTransform="rotate(-20.089 97.619 67.899)" gradientUnits="userSpaceOnUse">
      <stop offset="0" stop-color="#ffeb3b" />
      <stop offset="1" stop-color="#fbc02d" />
    </radialGradient>
    <path fill="url(#SVGOq5wUbvK)"
      d="m90.09 63.26l4.74 2.19c.12.06.26.04.36-.04l4.75-3.59c.25-.19.59.01.57.31l-.45 5.9c-.01.13.05.26.17.33l4.53 2.8c.27.17.2.59-.12.65l-5.68 1.17c-.14.03-.25.13-.28.27l-1.21 5.35c-.07.32-.5.38-.66.09l-2.52-4.61a.36.36 0 0 0-.32-.19l-5.96.19c-.31.01-.48-.35-.29-.59l3.84-4.59c.09-.1.11-.24.06-.37l-2.02-4.82c-.11-.29.2-.59.49-.45" />
    <radialGradient id="SVGXJyVrdMr" cx="134.587" cy="-6.354" r="16.452"
      gradientTransform="matrix(-.2474 .9423 -1.0398 -.1868 134.717 -108.97)" gradientUnits="userSpaceOnUse">
      <stop offset=".325" stop-color="#ffeb3b" />
      <stop offset="1" stop-color="#fbc02d" />
    </radialGradient>
    <path fill="url(#SVGXJyVrdMr)"
      d="m109.65 11.65l8.43-3.74c.42-.19.79.23.57.63l-4.17 7.68c-.1.18-.08.4.05.54l9.03 8.76c.27.28.04.78-.37.8l-11.08-1.95c-.17.01-.33.11-.42.27l-5.83 10.67c-.22.39-.78.35-.87-.06l-1.14-10.39a.44.44 0 0 0-.39-.33l-9.15-1.49c-.39-.03-.54-.5-.24-.79l7.65-5.88c.11-.11.17-.26.15-.41L100.5 4.38c-.04-.44.51-.73.82-.43l7.82 7.62c.13.12.33.15.51.08" />
    <path fill="#fdd835"
      d="M96.29 26.87c-3.74.96-7.53 1.79-11.4 2.11c-3.87.35-7.8.07-11.62-.62c-3.82-.71-7.57-1.6-11.35-2.3s-7.58-1.26-11.4-1.7c-1.91-.22-3.83-.38-5.74-.57c-1.87-.18-3.72-.13-5.48.28c-1.73.44-3.34 1.27-4.38 2.63c-1.05 1.34-1.55 3.08-1.55 4.87c-.02 3.61 1.43 7.21 3.27 10.46c1.85 3.27 4.28 6.24 6.71 9.21c4.84 5.96 10.07 11.63 15.26 17.34c2.6 2.86 5.2 5.71 7.76 8.61c2.58 2.88 5.07 5.85 7.45 8.91c2.39 3.05 4.66 6.24 6.51 9.7c.46.84.97 1.77 1.12 2.89c.05.57-.01 1.2-.33 1.76s-.85.91-1.36 1.14c-1.05.42-2.09.45-3.09.4c-1-.06-1.98-.22-2.94-.44c-3.82-.93-7.39-2.52-10.83-4.31c-1.72-.9-3.4-1.86-5.05-2.87c-1.64-1.02-3.25-2.1-4.83-3.2c3.28 2.04 6.64 3.94 10.11 5.59c3.47 1.64 7.08 3.07 10.79 3.82c.93.17 1.86.31 2.78.34s1.85-.05 2.59-.37c.36-.17.66-.39.81-.69c.15-.29.19-.66.15-1.05c-.12-.8-.55-1.6-1.04-2.43c-1.87-3.3-4.16-6.38-6.6-9.34c-9.76-11.84-20.88-22.6-30.8-34.54c-2.43-3.01-4.89-6.07-6.82-9.54c-1.9-3.44-3.47-7.26-3.42-11.43c.02-2.06.62-4.23 1.98-5.93c1.35-1.73 3.37-2.73 5.36-3.21c2.01-.44 4.07-.49 6.04-.26c1.92.24 3.85.44 5.77.71c3.84.54 7.66 1.2 11.45 1.99c3.79.8 7.54 1.76 11.29 2.57c3.74.82 7.56 1.25 11.4 1.05c3.83-.18 7.64-.83 11.43-1.58" />
    <radialGradient id="SVGXtqgqbBh" cx="92.761" cy="70.093" r="93.729"
      gradientTransform="matrix(.8599 .5105 -.306 .5153 34.446 -13.385)" gradientUnits="userSpaceOnUse">
      <stop offset="0" stop-color="#ffee58" stop-opacity="0" />
      <stop offset="1" stop-color="#fdd835" />
    </radialGradient>
    <path fill="url(#SVGXtqgqbBh)"
      d="M67.78 35.64c-11.25 2.62-24.16-5-36.08-3.66c-4.55.6-6.42 6.04-2.05 14.66c8.58 14.77 21.1 23.49 25.72 28.9c-6.21-3.48-18.97-12.65-27.84-21.28c-13.35-12.8-10.88-28.8 1.5-28.75c4.15-.4 12.18 1.6 15.54 2.83c3.31 1.33 14.58 6.24 23.21 7.3" />
  </symbol>

  <symbol id="play" viewBox="0 0 24 24">
    <path fill="currentColor"
      d="M6.4 19L5 17.6l5.6-5.6L5 6.4L6.4 5l5.6 5.6L17.6 5L19 6.4L13.4 12l5.6 5.6l-1.4 1.4l-5.6-5.6z" />
  </symbol>

  <symbol id="generate" viewBox="0 0 512 512">
    <path fill="currentColor"
      d="m283.016 48.38l-139.713 83.54a59.9 59.9 0 0 0-17.585-2.632C91.632 129.288 64 157.904 64 193.204c0 14.546 4.692 27.957 12.594 38.699a64 64 0 0 1-2.918-4.325l75.413 135.295l-.137.557a88.3 88.3 0 0 0-2.439 20.679l.013 42.607l-41.158.004v42.611h257.299v-42.667l-51.559.052l-.012-42.607c0-34.106-19.346-63.533-47.294-77.153l-4.438-1.999l-60.217-108.02l105.111-62.851l45.841 82.325c-1.918 7.072-1.495 14.819 1.621 21.884l1.363 2.739c2.069 3.709 4.747 6.828 7.828 9.296l.028 43.648l-.037.164l39.743 11.029l5.325-20.58l-24.457-6.802l.002-20.818c4.685-.265 9.382-1.644 13.723-4.24c4.593-2.746 8.247-6.531 10.844-10.903l18.013 10.779l-6.488 25.161l19.872 5.514L448 242.357l-.046-.005l.034-.067l-37.749-22.591a32.7 32.7 0 0 0-3.706-10.619c-4.794-8.599-12.864-14.018-21.635-15.542l-47.13-84.511c8.451-13.07 9.561-30.503 1.454-45.045c-11.362-20.38-36.526-27.364-56.206-15.597m-54.211 293.118c21.691 0 39.462 17.383 41.032 39.431l.113 3.18v42.611h-82.291v-42.611c0-22.464 16.785-40.867 38.075-42.494zm-58.397-104.21l2.278-2.616l37.087 66.506l.785-.188c-12.526 2.936-23.968 8.832-33.605 16.939l-3.588 3.2l-36.294-65.087l-.561.105c13.232-2.417 25.01-9.199 33.898-18.859m-44.69-65.389c11.362 0 20.573 9.539 20.573 21.305s-9.211 21.306-20.573 21.306s-20.572-9.539-20.572-21.306c0-11.766 9.21-21.305 20.572-21.305m175.35-96.784c5.681 0 10.286 4.77 10.286 10.653s-4.605 10.653-10.286 10.653s-10.286-4.77-10.286-10.653s4.605-10.653 10.286-10.653" />
  </symbol>

  <symbol id="contract" viewBox="0 0 24 24">
    <path fill="currentColor"
      d="M6.4 19L5 17.6l5.6-5.6L5 6.4L6.4 5l5.6 5.6L17.6 5L19 6.4L13.4 12l5.6 5.6l-1.4 1.4l-5.6-5.6z" />
  </symbol>

  <symbol id="close" viewBox="0 0 24 24">
    <path fill="currentColor" d="m18.988 2.012l3 3L19.701 7.3l-3-3zM8 16h3l7.287-7.287l-3-3L8 13z" />
    <path fill="currentColor"
      d="M19 19H8.158c-.026 0-.053.01-.079.01c-.033 0-.066-.009-.1-.01H5V5h6.847l2-2H5c-1.103 0-2 .896-2 2v14c0 1.104.897 2 2 2h14a2 2 0 0 0 2-2v-8.668l-2 2z" />
  </symbol>

  <symbol id="clone" viewBox="0 0 24 24">
    <path fill="currentColor" d="m18.988 2.012l3 3L19.701 7.3l-3-3zM8 16h3l7.287-7.287l-3-3L8 13z" />
    <path fill="currentColor"
      d="M19 19H8.158c-.026 0-.053.01-.079.01c-.033 0-.066-.009-.1-.01H5V5h6.847l2-2H5c-1.103 0-2 .896-2 2v14c0 1.104.897 2 2 2h14a2 2 0 0 0 2-2v-8.668l-2 2z" />
  </symbol>

  <symbol id="edit" viewBox="0 0 24 24">
    <g fill="none" stroke="currentColor" stroke-linecap="round" stroke-linejoin="round" stroke-width="2">
      <path d="M12 3H5a2 2 0 0 0-2 2v14a2 2 0 0 0 2 2h14a2 2 0 0 0 2-2v-7" />
      <path
        d="M18.375 2.625a1 1 0 0 1 3 3l-9.013 9.014a2 2 0 0 1-.853.505l-2.873.84a.5.5 0 0 1-.62-.62l.84-2.873a2 2 0 0 1 .506-.852z" />
    </g>
  </symbol>

  <symbol id="build" viewBox="0 0 24 24">
    <path fill="currentColor"
      d="M16.65 20.44H16v-2.37a3.07 3.07 0 0 0-6.14 0v2.37h-.64a1.5 1.5 0 0 0-1.5 1.5v1.56a.5.5 0 0 0 .5.5h9.43a.5.5 0 0 0 .5-.5v-1.56a1.5 1.5 0 0 0-1.5-1.5M13 19.1a1.06 1.06 0 0 1 0-2.1a1.06 1.06 0 1 1 0 2.11Z" />
    <path fill="currentColor"
      d="M23.92 8.81a4.32 4.32 0 0 0-4.13-3.09A4.2 4.2 0 0 0 18 6.1l-2.26-2.32A3 3 0 0 0 11.46.34A3 3 0 0 0 10 2.17L3.72 7a3.2 3.2 0 0 0-1.93.35a3.29 3.29 0 0 0 1.84 6.19l4.76 4.89V18A4.54 4.54 0 0 1 10 14.52L6.52 11a3.25 3.25 0 0 0 0-1.55l4.87-3.85a3 3 0 0 0 2.33.27l2.24 2.26a4.2 4.2 0 0 0-.45 1.9a4.31 4.31 0 0 0 3.21 4.17a1.2 1.2 0 0 0 .32 0a1.25 1.25 0 0 0 .31-2.46a1.81 1.81 0 1 1 2.2-2.26a1.25 1.25 0 1 0 2.39-.7Zm-20.61 2.5a1.05 1.05 0 1 1 1.06-1.05a1 1 0 0 1-1.06 1.05m9.54-7.22A1.1 1.1 0 1 1 14 3a1.09 1.09 0 0 1-1.15 1.09" />
  </symbol>

  <symbol id="magic-preview" viewBox="0 0 48 48">
    <g fill="none" stroke="currentColor" stroke-linejoin="round" stroke-width="4">
      <path d="M24 36c11.046 0 20-12 20-12s-8.954-12-20-12S4 24 4 24s8.954 12 20 12Z" />
      <path d="M24 29a5 5 0 1 0 0-10a5 5 0 0 0 0 10Z" />
    </g>
  </symbol>

</svg>